<svg width="221" height="66" viewBox="0 0 221 66" fill="none" xmlns="http://www.w3.org/2000/svg">
<path d="M219.111 57.7306C219.111 58.5544 218.949 59.3702 218.633 60.1313C218.318 60.8923 217.857 61.5838 217.275 62.166C216.692 62.7483 216.001 63.2099 215.241 63.5246C214.481 63.8393 213.666 64.0008 212.843 63.9999H7.73141C6.06897 64.0017 4.4739 63.3422 3.297 62.1665C2.1201 60.9908 1.45773 59.3952 1.45557 57.7306V7.73448C1.45773 6.06911 2.11984 4.47266 3.29651 3.29567C4.47317 2.11868 6.06822 1.45737 7.73141 1.45694H212.841C213.665 1.45694 214.48 1.61933 215.24 1.93482C216.001 2.25032 216.692 2.71274 217.274 3.29569C217.856 3.87863 218.318 4.57068 218.632 5.3323C218.947 6.09391 219.109 6.91018 219.109 7.73448L219.111 57.7306Z" fill="white"/>
<path d="M212.842 65.4583H7.73078C5.68284 65.4579 3.71872 64.644 2.26939 63.1952C0.820055 61.7464 0.00389666 59.7811 0 57.7305L0 7.73603C0.00302962 5.68439 0.818649 3.71772 2.26794 2.26745C3.71722 0.817175 5.68183 0.00173166 7.73078 0L212.841 0C214.889 0.00259572 216.854 0.818317 218.303 2.2684C219.752 3.71848 220.568 5.68465 220.572 7.73603V57.7305C220.575 61.993 217.101 65.4583 212.842 65.4583Z" fill="black"/>
<path d="M212.843 5.34058e-05H102.979L146.011 65.4584H212.843C214.891 65.4567 216.856 64.6417 218.305 63.1921C219.754 61.7425 220.57 59.7767 220.574 57.7256V7.73608C220.57 5.68457 219.755 3.71815 218.305 2.26798C216.856 0.8178 214.892 0.00221726 212.843 5.34058e-05V5.34058e-05Z" fill="url(#paint0_linear)"/>
<path d="M49.252 32.3847C49.2046 27.1089 53.5661 24.5423 53.7655 24.4228C51.2954 20.8167 47.4668 20.3239 46.1214 20.2847C42.9058 19.9458 39.7867 22.2113 38.1487 22.2113C36.478 22.2113 33.9555 20.3174 31.2369 20.3731C27.7385 20.4271 24.4657 22.4552 22.6708 25.6046C18.9664 32.0262 21.7292 41.463 25.2782 46.6536C27.0536 49.1974 29.1281 52.0341 31.8434 51.9343C34.4999 51.8262 35.4922 50.2401 38.698 50.2401C41.8743 50.2401 42.8061 51.9343 45.5754 51.8704C48.4264 51.8262 50.2214 49.3169 51.9346 46.7518C53.9862 43.8398 54.8101 40.9686 54.8428 40.8213C54.7774 40.7984 49.3075 38.7064 49.252 32.3847ZM44.0207 16.8701C45.4495 15.0809 46.4271 12.6468 46.1557 10.1768C44.0878 10.2684 41.5016 11.609 40.0123 13.3589C38.6947 14.9009 37.5177 17.4283 37.8217 19.805C40.1447 19.9786 42.5298 18.6314 44.0207 16.8701Z" fill="white"/>
<path d="M87.7293 51.5692H84.0168L81.9831 45.1705H74.9144L72.9772 51.5692H69.3628L76.3677 29.7852H80.6933L87.7293 51.5692ZM81.3701 42.486L79.531 36.7978C79.3365 36.2167 78.9703 34.8482 78.4341 32.694H78.3687C78.1529 33.6205 77.808 34.989 77.3355 36.7978L75.5275 42.486H81.3701ZM105.708 43.5222C105.708 46.1936 104.984 48.3052 103.534 49.8554C102.236 51.2353 100.623 51.9244 98.6985 51.9244C96.6208 51.9244 95.1266 51.1829 94.2193 49.6966V57.9384H90.734V41.0243C90.734 39.3464 90.6899 37.626 90.6049 35.8614H93.67L93.8646 38.3512H93.93C95.0923 36.4753 96.8562 35.5373 99.2233 35.5373C101.074 35.5373 102.619 36.269 103.855 37.7341C105.089 39.2024 105.708 41.1306 105.708 43.5222ZM102.158 43.6499C102.158 42.121 101.814 40.8606 101.125 39.867C100.371 38.8341 99.359 38.3168 98.0904 38.3168C97.2305 38.3168 96.4491 38.6049 95.7511 39.1729C95.0514 39.7458 94.5937 40.4939 94.3795 41.4204C94.2839 41.7669 94.2296 42.1235 94.2177 42.4827V45.1034C94.2177 46.2444 94.5675 47.2085 95.2672 47.9975C95.9669 48.7832 96.8758 49.1777 97.994 49.1777C99.3067 49.1777 100.328 48.6686 101.059 47.6586C101.792 46.6454 102.158 45.3097 102.158 43.6499ZM123.751 43.5222C123.751 46.1936 123.027 48.3052 121.577 49.8554C120.277 51.2353 118.666 51.9244 116.74 51.9244C114.662 51.9244 113.168 51.1829 112.261 49.6966V57.9384H108.775V41.0243C108.775 39.3464 108.731 37.626 108.646 35.8614H111.711L111.906 38.3512H111.971C113.132 36.4753 114.896 35.5373 117.265 35.5373C119.113 35.5373 120.658 36.269 121.897 37.7341C123.13 39.2024 123.751 41.1306 123.751 43.5222ZM120.199 43.6499C120.199 42.121 119.854 40.8606 119.164 39.867C118.41 38.8341 117.402 38.3168 116.133 38.3168C115.273 38.3168 114.492 38.6049 113.791 39.1729C113.091 39.7458 112.635 40.4939 112.421 41.4204C112.314 41.8525 112.257 42.2045 112.257 42.4827V45.1034C112.257 46.2444 112.609 47.2085 113.305 47.9975C114.005 48.7816 114.914 49.1777 116.035 49.1777C117.35 49.1777 118.371 48.6686 119.1 47.6586C119.833 46.6454 120.199 45.3097 120.199 43.6499ZM143.924 45.4586C143.924 47.3133 143.277 48.8208 141.99 49.9847C140.575 51.2549 138.598 51.8917 136.064 51.8917C133.723 51.8917 131.847 51.4399 130.431 50.5347L131.237 47.6259C132.765 48.5327 134.444 48.9845 136.272 48.9845C137.586 48.9845 138.608 48.6866 139.337 48.0957C140.068 47.5031 140.437 46.7109 140.437 45.7222C140.437 44.8366 140.132 44.0951 139.532 43.4911C138.928 42.8887 137.931 42.3272 136.53 41.8116C132.721 40.3891 130.815 38.3086 130.815 35.5717C130.815 33.7842 131.489 32.3208 132.832 31.1766C134.176 30.034 135.958 29.4628 138.175 29.4628C140.154 29.4628 141.804 29.8082 143.113 30.4973L142.239 33.3422C141.006 32.6744 139.615 32.3405 138.059 32.3405C136.829 32.3405 135.865 32.6433 135.175 33.2457C134.595 33.7842 134.3 34.4406 134.3 35.2198C134.3 36.0792 134.635 36.7928 135.302 37.3527C135.881 37.8683 136.937 38.4297 138.464 39.0321C140.338 39.7884 141.714 40.669 142.595 41.6806C143.483 42.6923 143.924 43.9543 143.924 45.4586ZM155.477 38.4805H151.635V46.1069C151.635 48.0466 152.312 49.014 153.669 49.014C154.292 49.014 154.808 48.9616 155.217 48.8519L155.314 51.5021C154.627 51.7591 153.723 51.8884 152.603 51.8884C151.227 51.8884 150.151 51.4677 149.374 50.6264C148.601 49.785 148.212 48.3756 148.212 46.3917V38.4739H145.923V35.8549H148.212V32.9788L151.635 31.9443V35.8549H155.477V38.4805ZM172.776 43.586C172.776 46.0005 172.086 47.9827 170.71 49.5329C169.269 51.1289 167.354 51.9244 164.965 51.9244C162.66 51.9244 160.828 51.16 159.461 49.6327C158.094 48.1022 157.411 46.174 157.411 43.8479C157.411 41.4138 158.117 39.4201 159.525 37.8699C160.935 36.3181 162.835 35.5422 165.223 35.5422C167.525 35.5422 169.374 36.3083 170.773 37.8372C172.111 39.3202 172.776 41.2354 172.776 43.586ZM169.163 43.6662C169.163 42.2274 168.853 40.9931 168.23 39.9603C167.499 38.7129 166.453 38.0893 165.098 38.0893C163.701 38.0893 162.631 38.7129 161.902 39.9603C161.277 40.9931 160.967 42.2487 160.967 43.7317C160.967 45.1722 161.277 46.4097 161.902 47.4393C162.655 48.6866 163.706 49.3103 165.068 49.3103C166.4 49.3103 167.445 48.6735 168.2 47.4082C168.841 46.3507 169.163 45.1083 169.163 43.6662ZM184.11 38.9306C183.747 38.8651 183.38 38.8328 183.011 38.8341C181.785 38.8341 180.837 39.2957 180.17 40.2254C179.591 41.0439 179.3 42.0784 179.3 43.3274V51.5692H175.815V40.8082C175.818 39.1593 175.784 37.5105 175.714 35.8631H178.749L178.877 38.8684H178.973C179.343 37.8356 179.922 37.0024 180.716 36.3787C181.443 35.8337 182.327 35.5386 183.235 35.5373C183.557 35.5373 183.848 35.5603 184.107 35.6012L184.11 38.9306ZM199.697 42.9722C199.706 43.5027 199.663 44.0328 199.57 44.5551H189.114C189.153 46.1069 189.66 47.2952 190.631 48.1137C191.512 48.8438 192.651 49.2104 194.051 49.2104C195.599 49.2104 197.011 48.9649 198.282 48.4689L198.828 50.8899C197.343 51.5381 195.591 51.8606 193.569 51.8606C191.136 51.8606 189.227 51.1436 187.837 49.713C186.451 48.2807 185.756 46.3557 185.756 43.9445C185.756 41.5775 186.402 39.6051 187.695 38.032C189.048 36.3525 190.878 35.5128 193.179 35.5128C195.44 35.5128 197.152 36.3525 198.314 38.032C199.235 39.3628 199.697 41.0128 199.697 42.9722ZM196.374 42.067C196.398 41.0308 196.169 40.1387 195.697 39.3841C195.094 38.4117 194.165 37.9272 192.921 37.9272C191.782 37.9272 190.853 38.4003 190.147 39.3497C189.567 40.1043 189.222 41.0112 189.115 42.0637L196.374 42.067Z" fill="white"/>
<path d="M73.9079 22.0834C72.9385 22.0834 72.0999 22.036 71.4019 21.9558V11.4239C72.3781 11.2729 73.3647 11.1984 74.3526 11.2013C78.3496 11.2013 80.1903 13.1705 80.1903 16.3804C80.1903 20.0831 78.0161 22.0834 73.9079 22.0834ZM74.4932 12.5517C73.9537 12.5517 73.4943 12.5845 73.1134 12.663V20.6691C73.3194 20.7019 73.715 20.7166 74.2709 20.7166C76.8897 20.7166 78.3806 19.2238 78.3806 16.4279C78.3806 13.9349 77.032 12.5517 74.4932 12.5517ZM85.9267 22.1636C83.674 22.1636 82.2142 20.4793 82.2142 18.1925C82.2142 15.8092 83.7051 14.1101 86.0542 14.1101C88.2742 14.1101 89.7667 15.7142 89.7667 18.0665C89.7667 20.4793 88.2284 22.1636 85.9267 22.1636ZM85.9921 15.3639C84.7546 15.3639 83.9617 16.5229 83.9617 18.1434C83.9617 19.7328 84.7709 20.8918 85.9757 20.8918C87.1805 20.8918 87.9898 19.6526 87.9898 18.1107C87.9898 16.5392 87.1969 15.3639 85.9921 15.3639ZM102.613 14.2688L100.201 21.9885H98.6304L97.6316 18.6361C97.3832 17.8161 97.1764 16.984 97.012 16.1431H96.9793C96.8534 16.9845 96.6147 17.8275 96.3614 18.6361L95.2988 21.9885H93.7114L91.4424 14.2688H93.203L94.076 17.9388C94.2819 18.8129 94.4552 19.6379 94.5991 20.4171H94.6318C94.7577 19.7672 94.9636 18.9553 95.2661 17.9551L96.3614 14.2705H97.7574L98.8053 17.8766C99.0587 18.7507 99.2647 19.6084 99.4249 20.4187H99.4707C99.5818 19.6248 99.7568 18.7818 99.9938 17.8766L100.931 14.2705L102.613 14.2688ZM111.489 21.9885H109.776V17.5557C109.776 16.1906 109.253 15.5063 108.222 15.5063C107.206 15.5063 106.508 16.3804 106.508 17.397V21.9885H104.795V16.4754C104.795 15.7928 104.779 15.0611 104.731 14.2672H106.239L106.319 15.4589H106.366C106.827 14.6339 107.762 14.1101 108.81 14.1101C110.428 14.1101 111.491 15.3492 111.491 17.3659L111.489 21.9885ZM116.214 21.9885H114.499V10.7266H116.214V21.9885ZM122.46 22.1636C120.209 22.1636 118.748 20.4793 118.748 18.1925C118.748 15.8092 120.239 14.1101 122.586 14.1101C124.808 14.1101 126.299 15.7142 126.299 18.0665C126.3 20.4793 124.76 22.1636 122.46 22.1636ZM122.524 15.3639C121.287 15.3639 120.494 16.5229 120.494 18.1434C120.494 19.7328 121.305 20.8918 122.506 20.8918C123.713 20.8918 124.52 19.6526 124.52 18.1107C124.522 16.5392 123.73 15.3639 122.524 15.3639ZM133.054 21.9885L132.929 21.0997H132.884C132.36 21.815 131.597 22.1636 130.629 22.1636C129.248 22.1636 128.267 21.1946 128.267 19.8916C128.267 17.9863 129.916 17.0008 132.772 17.0008V16.8584C132.772 15.8419 132.235 15.3328 131.172 15.3328C130.412 15.3328 129.745 15.5243 129.158 15.9057L128.81 14.7779C129.522 14.3327 130.412 14.1101 131.456 14.1101C133.47 14.1101 134.487 15.174 134.487 17.3037V20.147C134.487 20.9261 134.522 21.5302 134.598 21.9901L133.054 21.9885ZM132.818 18.1434C130.915 18.1434 129.961 18.605 129.961 19.7001C129.961 20.5104 130.453 20.9065 131.136 20.9065C132.007 20.9065 132.818 20.2403 132.818 19.3351V18.1434ZM142.807 21.9885L142.726 20.7494H142.679C142.187 21.6857 141.36 22.1636 140.204 22.1636C138.345 22.1636 136.969 20.5267 136.969 18.2236C136.969 15.8092 138.396 14.1084 140.345 14.1084C141.376 14.1084 142.107 14.4571 142.519 15.1577H142.553V10.7266H144.268V19.908C144.268 20.6544 144.286 21.3534 144.332 21.9885H142.807ZM142.553 17.4461C142.553 16.3657 141.839 15.4441 140.748 15.4441C139.478 15.4441 138.702 16.572 138.702 18.1598C138.702 19.7165 139.508 20.7821 140.714 20.7821C141.791 20.7821 142.553 19.8441 142.553 18.7327V17.4461ZM155.141 22.1636C152.89 22.1636 151.43 20.4793 151.43 18.1925C151.43 15.8092 152.921 14.1101 155.268 14.1101C157.49 14.1101 158.981 15.7142 158.981 18.0665C158.982 20.4793 157.444 22.1636 155.141 22.1636ZM155.205 15.3639C153.969 15.3639 153.176 16.5229 153.176 18.1434C153.176 19.7328 153.985 20.8918 155.188 20.8918C156.395 20.8918 157.202 19.6526 157.202 18.1107C157.205 16.5392 156.413 15.3639 155.205 15.3639ZM168.194 21.9885H166.479V17.5557C166.479 16.1906 165.956 15.5063 164.925 15.5063C163.91 15.5063 163.213 16.3804 163.213 17.397V21.9885H161.498V16.4754C161.498 15.7928 161.482 15.0611 161.435 14.2672H162.942L163.022 15.4589H163.069C163.529 14.6339 164.465 14.1084 165.512 14.1084C167.13 14.1084 168.194 15.3476 168.194 17.3642V21.9885ZM179.721 15.5554H177.836V19.304C177.836 20.2583 178.166 20.7346 178.833 20.7346C179.136 20.7346 179.389 20.7019 179.593 20.6544L179.641 21.9574C179.309 22.0851 178.864 22.1489 178.312 22.1489C176.962 22.1489 176.154 21.4025 176.154 19.448V15.5554H175.029V14.2688H176.154V12.8545L177.836 12.3455V14.2672H179.721V15.5554ZM188.791 21.9885H187.079V17.5885C187.079 16.2069 186.558 15.508 185.524 15.508C184.637 15.508 183.81 16.112 183.81 17.3348V21.9885H182.098V10.7266H183.81V15.3639H183.844C184.383 14.5226 185.165 14.1084 186.162 14.1084C187.793 14.1084 188.791 15.3787 188.791 17.397V21.9885ZM198.083 18.5412H192.941C192.974 20.0029 193.94 20.8279 195.371 20.8279C196.131 20.8279 196.83 20.7002 197.448 20.4629L197.715 21.6546C196.986 21.9721 196.127 22.1309 195.129 22.1309C192.717 22.1309 191.29 20.6053 191.29 18.24C191.29 15.873 192.752 14.0937 194.936 14.0937C196.906 14.0937 198.141 15.5554 198.141 17.7636C198.153 18.0242 198.133 18.2852 198.083 18.5412ZM196.512 17.3184C196.512 16.1267 195.912 15.2854 194.816 15.2854C193.832 15.2854 193.054 16.1431 192.943 17.3184H196.512Z" fill="white"/>
<rect x="64" y="8" width="138" height="16" fill="black"/>
<path d="M69.405 18.74L70.23 17.735C70.53 18.055 70.9 18.32 71.34 18.53C71.79 18.74 72.25 18.845 72.72 18.845C73.38 18.845 73.91 18.675 74.31 18.335C74.72 17.985 74.925 17.515 74.925 16.925C74.925 16.385 74.74 15.96 74.37 15.65C74.01 15.33 73.535 15.17 72.945 15.17H71.64V13.94H72.69C73.23 13.94 73.68 13.78 74.04 13.46C74.41 13.14 74.595 12.73 74.595 12.23C74.595 11.74 74.435 11.335 74.115 11.015C73.805 10.695 73.34 10.535 72.72 10.535C71.85 10.535 71.06 10.835 70.35 11.435L69.72 10.325C70.6 9.595 71.67 9.23 72.93 9.23C73.86 9.23 74.62 9.485 75.21 9.995C75.81 10.495 76.11 11.18 76.11 12.05C76.11 13.13 75.6 13.925 74.58 14.435V14.465C75.15 14.625 75.6 14.93 75.93 15.38C76.27 15.82 76.44 16.36 76.44 17C76.44 17.96 76.095 18.73 75.405 19.31C74.725 19.89 73.87 20.18 72.84 20.18C72.19 20.18 71.555 20.055 70.935 19.805C70.325 19.545 69.815 19.19 69.405 18.74ZM77.6835 17.93C77.6835 17.37 77.8385 16.9 78.1485 16.52C78.4585 16.14 78.8685 15.87 79.3785 15.71C79.8985 15.54 80.3785 15.425 80.8185 15.365C81.2585 15.305 81.7235 15.275 82.2135 15.275H82.6035V15.125C82.6035 14.015 82.0485 13.46 80.9385 13.46C80.2085 13.46 79.4985 13.705 78.8085 14.195L78.2235 13.13C78.5335 12.87 78.9535 12.655 79.4835 12.485C80.0135 12.315 80.5385 12.23 81.0585 12.23C82.0185 12.23 82.7585 12.485 83.2785 12.995C83.7985 13.505 84.0585 14.24 84.0585 15.2V20H82.6935V19.235L82.7385 18.635H82.7085C82.4785 19.085 82.1385 19.455 81.6885 19.745C81.2485 20.035 80.7585 20.18 80.2185 20.18C79.5285 20.18 78.9335 19.975 78.4335 19.565C77.9335 19.155 77.6835 18.61 77.6835 17.93ZM79.1385 17.81C79.1385 18.14 79.2635 18.425 79.5135 18.665C79.7635 18.905 80.1135 19.025 80.5635 19.025C81.1635 19.025 81.6535 18.775 82.0335 18.275C82.4135 17.775 82.6035 17.22 82.6035 16.61V16.325H82.2285C80.1685 16.325 79.1385 16.82 79.1385 17.81ZM86.209 20V12.41H90.964V13.655H87.664V20H86.209ZM92.4053 23V12.41H93.7553V13.085L93.7103 13.655H93.7403C93.9803 13.205 94.3253 12.855 94.7753 12.605C95.2253 12.355 95.7303 12.23 96.2903 12.23C97.3103 12.23 98.1203 12.595 98.7203 13.325C99.3203 14.055 99.6203 15.015 99.6203 16.205C99.6203 17.405 99.3003 18.37 98.6603 19.1C98.0203 19.82 97.1953 20.18 96.1853 20.18C95.1753 20.18 94.3903 19.75 93.8303 18.89H93.8003C93.8403 19.07 93.8603 19.29 93.8603 19.55V23H92.4053ZM93.8153 16.235C93.8153 16.955 94.0053 17.585 94.3853 18.125C94.7753 18.655 95.3003 18.92 95.9603 18.92C96.5803 18.92 97.1003 18.68 97.5203 18.2C97.9403 17.71 98.1503 17.05 98.1503 16.22C98.1503 15.4 97.9503 14.745 97.5503 14.255C97.1603 13.755 96.6453 13.505 96.0053 13.505C95.3853 13.505 94.8653 13.735 94.4453 14.195C94.0253 14.655 93.8153 15.335 93.8153 16.235ZM100.819 21.575C101.099 21.795 101.389 21.905 101.689 21.905C102.299 21.905 102.759 21.53 103.069 20.78L103.444 19.91L100.264 12.41H101.899L103.804 17.375L104.089 18.29H104.119C104.199 17.95 104.284 17.65 104.374 17.39L106.219 12.41H107.794L104.224 21.365C104.004 21.945 103.674 22.385 103.234 22.685C102.804 22.995 102.314 23.15 101.764 23.15C101.514 23.15 101.269 23.11 101.029 23.03C100.789 22.95 100.609 22.87 100.489 22.79L100.309 22.685L100.819 21.575ZM108.487 19.07L109.162 18.11C109.732 18.71 110.392 19.01 111.142 19.01C111.602 19.01 111.977 18.905 112.267 18.695C112.567 18.475 112.717 18.165 112.717 17.765C112.717 16.995 112.197 16.61 111.157 16.61H110.227V15.56H111.022C111.982 15.56 112.462 15.195 112.462 14.465C112.462 14.115 112.342 13.845 112.102 13.655C111.862 13.465 111.532 13.37 111.112 13.37C110.472 13.37 109.857 13.59 109.267 14.03L108.727 13.055C109.467 12.505 110.347 12.23 111.367 12.23C112.117 12.23 112.732 12.41 113.212 12.77C113.692 13.13 113.932 13.635 113.932 14.285C113.932 15.125 113.562 15.7 112.822 16.01V16.04C113.732 16.33 114.187 16.925 114.187 17.825C114.187 18.575 113.907 19.155 113.347 19.565C112.797 19.975 112.107 20.18 111.277 20.18C110.197 20.18 109.267 19.81 108.487 19.07ZM115.945 20V12.41H117.34V16.94C117.34 17.47 117.325 17.81 117.295 17.96H117.325C117.375 17.84 117.6 17.5 118 16.94L121.27 12.41H122.68V20H121.27V15.47C121.27 15.33 121.275 15.135 121.285 14.885C121.305 14.625 121.315 14.485 121.315 14.465H121.285C121.275 14.485 121.055 14.82 120.625 15.47L117.34 20H115.945ZM126.74 20V13.655H124.1V12.41H130.835V13.655H128.18V20H126.74ZM132.264 20V12.41H133.719V15.155H135.249C136.089 15.155 136.759 15.36 137.259 15.77C137.759 16.17 138.009 16.78 138.009 17.6C138.009 18.34 137.774 18.925 137.304 19.355C136.844 19.785 136.149 20 135.219 20H132.264ZM133.719 18.95H135.024C135.524 18.95 135.899 18.83 136.149 18.59C136.399 18.34 136.524 18.005 136.524 17.585C136.524 17.155 136.399 16.82 136.149 16.58C135.909 16.33 135.534 16.205 135.024 16.205H133.719V18.95ZM143.323 20V12.41H146.458C147.238 12.41 147.853 12.58 148.303 12.92C148.763 13.25 148.993 13.73 148.993 14.36C148.993 14.73 148.898 15.065 148.708 15.365C148.518 15.655 148.253 15.875 147.913 16.025V16.04C148.373 16.15 148.728 16.37 148.978 16.7C149.228 17.03 149.353 17.41 149.353 17.84C149.353 18.53 149.098 19.065 148.588 19.445C148.088 19.815 147.413 20 146.563 20H143.323ZM144.778 15.62H146.203C146.633 15.62 146.958 15.52 147.178 15.32C147.398 15.11 147.508 14.825 147.508 14.465C147.508 13.765 147.058 13.415 146.158 13.415H144.778V15.62ZM144.778 18.98H146.338C146.848 18.98 147.233 18.875 147.493 18.665C147.753 18.455 147.883 18.165 147.883 17.795C147.883 17.415 147.748 17.12 147.478 16.91C147.208 16.7 146.823 16.595 146.323 16.595H144.778V18.98Z" fill="white"/>
<defs>
<linearGradient id="paint0_linear" x1="161.775" y1="65.6322" x2="161.775" y2="-170.442" gradientUnits="userSpaceOnUse">
<stop stop-color="#1A1A1A" stop-opacity="0.1"/>
<stop offset="0.123" stop-color="#212121" stop-opacity="0.151"/>
<stop offset="0.308" stop-color="#353535" stop-opacity="0.227"/>
<stop offset="0.532" stop-color="#575757" stop-opacity="0.318"/>
<stop offset="0.783" stop-color="#858585" stop-opacity="0.421"/>
<stop offset="1" stop-color="#B3B3B3" stop-opacity="0.51"/>
</linearGradient>
</defs>
</svg>
