<svg width="220" height="66" viewBox="0 0 220 66" fill="none" xmlns="http://www.w3.org/2000/svg">
<path d="M211.64 65.2229H8.14C3.5816 65.2229 0 61.6356 0 57.07V8.15286C0 3.58726 3.5816 0 8.14 0H211.64C216.198 0 219.78 3.58726 219.78 8.15286V57.07C219.78 61.6356 216.198 65.2229 211.64 65.2229Z" fill="black"/>
<path d="M211.64 1.30446C215.384 1.30446 218.478 4.40255 218.478 8.15286V57.07C218.478 60.8204 215.384 63.9184 211.64 63.9184H8.14C4.3956 63.9184 1.3024 60.8204 1.3024 57.07V8.15286C1.3024 4.40255 4.3956 1.30446 8.14 1.30446H211.64ZM211.64 0H8.14C3.5816 0 0 3.75032 0 8.15286V57.07C0 61.6356 3.5816 65.2229 8.14 65.2229H211.64C216.198 65.2229 219.78 61.6356 219.78 57.07V8.15286C219.78 3.75032 216.198 0 211.64 0Z" fill="black"/>
<path d="M77.1689 16.632C77.1689 17.9365 76.8433 19.0779 76.0293 19.8931C75.0525 20.8715 73.9129 21.3607 72.4477 21.3607C70.9825 21.3607 69.8429 20.8715 68.8661 19.8931C67.8893 18.9148 67.4009 17.7734 67.4009 16.3059C67.4009 14.8384 67.8893 13.697 68.8661 12.7186C69.8429 11.7403 70.9825 11.2511 72.4477 11.2511C73.0989 11.2511 73.7501 11.4142 74.4013 11.7403C75.0525 12.0664 75.5409 12.3925 75.8665 12.8817L75.0525 13.697C74.4013 12.8817 73.5873 12.5556 72.4477 12.5556C71.4709 12.5556 70.4941 12.8817 69.8429 13.697C69.0289 14.3492 68.7033 15.3275 68.7033 16.4689C68.7033 17.6103 69.0289 18.5887 69.8429 19.2409C70.6569 19.8931 71.4709 20.3823 72.4477 20.3823C73.5873 20.3823 74.4013 20.0562 75.2153 19.2409C75.7037 18.7517 76.0293 18.0995 76.0293 17.2842H72.4477V15.9798H77.1689V16.632ZM84.6577 12.5556H80.2621V15.6537H84.3321V16.7951H80.2621V19.8931H84.6577V21.1976H78.9597V11.4142H84.6577V12.5556ZM90.0301 21.1976H88.7277V12.5556H85.9601V11.4142H92.7977V12.5556H90.0301V21.1976ZM97.5189 21.1976V11.4142H98.8213V21.1976H97.5189ZM104.356 21.1976H103.054V12.5556H100.286V11.4142H106.961V12.5556H104.194V21.1976H104.356ZM119.822 19.8931C118.846 20.8715 117.706 21.3607 116.241 21.3607C114.776 21.3607 113.636 20.8715 112.659 19.8931C111.682 18.9148 111.194 17.7734 111.194 16.3059C111.194 14.8384 111.682 13.697 112.659 12.7186C113.636 11.7403 114.776 11.2511 116.241 11.2511C117.706 11.2511 118.846 11.7403 119.822 12.7186C120.799 13.697 121.288 14.8384 121.288 16.3059C121.288 17.7734 120.799 18.9148 119.822 19.8931ZM113.636 19.0779C114.287 19.7301 115.264 20.2193 116.241 20.2193C117.218 20.2193 118.194 19.8931 118.846 19.0779C119.497 18.4256 119.985 17.4473 119.985 16.3059C119.985 15.1645 119.66 14.1861 118.846 13.5339C118.194 12.8817 117.218 12.3925 116.241 12.3925C115.264 12.3925 114.287 12.7186 113.636 13.5339C112.985 14.1861 112.496 15.1645 112.496 16.3059C112.496 17.4473 112.822 18.4256 113.636 19.0779ZM123.078 21.1976V11.4142H124.544L129.265 19.0779V11.4142H130.567V21.1976H129.265L124.218 13.2078V21.1976H123.078Z" fill="white"/>
<path d="M110.866 35.5466C106.958 35.5466 103.865 38.4817 103.865 42.5581C103.865 46.4715 106.958 49.5696 110.866 49.5696C114.773 49.5696 117.866 46.6345 117.866 42.5581C117.866 38.3186 114.773 35.5466 110.866 35.5466ZM110.866 46.6345C108.749 46.6345 106.958 44.8409 106.958 42.395C106.958 39.9492 108.749 38.1555 110.866 38.1555C112.982 38.1555 114.773 39.7861 114.773 42.395C114.773 44.8409 112.982 46.6345 110.866 46.6345ZM95.7253 35.5466C91.8181 35.5466 88.7249 38.4817 88.7249 42.5581C88.7249 46.4715 91.8181 49.5696 95.7253 49.5696C99.6325 49.5696 102.726 46.6345 102.726 42.5581C102.726 38.3186 99.6325 35.5466 95.7253 35.5466ZM95.7253 46.6345C93.6089 46.6345 91.8181 44.8409 91.8181 42.395C91.8181 39.9492 93.6089 38.1555 95.7253 38.1555C97.8417 38.1555 99.6325 39.7861 99.6325 42.395C99.6325 44.8409 97.8417 46.6345 95.7253 46.6345ZM77.6545 37.6664V40.6014H84.6549C84.4921 42.232 83.8409 43.5364 83.0269 44.3517C82.0501 45.3301 80.4221 46.4715 77.6545 46.4715C73.2589 46.4715 70.0029 43.0473 70.0029 38.6447C70.0029 34.2422 73.4217 30.818 77.6545 30.818C79.9337 30.818 81.7245 31.7963 83.0269 32.9377L85.1433 30.818C83.3525 29.1874 81.0733 27.8829 77.8173 27.8829C71.9565 27.8829 66.9097 32.7747 66.9097 38.6447C66.9097 44.5148 71.9565 49.4065 77.8173 49.4065C81.0733 49.4065 83.3525 48.4282 85.3061 46.3084C87.2597 44.3517 87.9109 41.5798 87.9109 39.46C87.9109 38.8078 87.9109 38.1555 87.7481 37.6664H77.6545ZM151.566 39.9492C150.914 38.3186 149.286 35.5466 145.705 35.5466C142.123 35.5466 139.193 38.3186 139.193 42.5581C139.193 46.4715 142.123 49.5696 146.03 49.5696C149.124 49.5696 151.077 47.6129 151.728 46.4715L149.449 44.8409C148.635 45.9823 147.658 46.7976 146.03 46.7976C144.402 46.7976 143.426 46.1454 142.612 44.6778L151.891 40.7645L151.566 39.9492ZM142.123 42.232C142.123 39.6231 144.24 38.1555 145.705 38.1555C146.844 38.1555 147.984 38.8078 148.31 39.6231L142.123 42.232ZM134.472 48.9173H137.565V28.5352H134.472V48.9173ZM129.588 37.0141C128.774 36.1989 127.471 35.3836 125.843 35.3836C122.424 35.3836 119.168 38.4817 119.168 42.395C119.168 46.3084 122.262 49.2434 125.843 49.2434C127.471 49.2434 128.774 48.4282 129.425 47.6129H129.588V48.5912C129.588 51.2001 128.122 52.6676 125.843 52.6676C124.052 52.6676 122.75 51.3632 122.424 50.2218L119.82 51.3632C120.634 53.1568 122.587 55.4396 126.006 55.4396C129.588 55.4396 132.518 53.3199 132.518 48.2651V35.8727H129.588V37.0141ZM126.006 46.6345C123.89 46.6345 122.099 44.8409 122.099 42.395C122.099 39.9492 123.89 38.1555 126.006 38.1555C128.122 38.1555 129.75 39.9492 129.75 42.395C129.75 44.8409 128.122 46.6345 126.006 46.6345ZM165.729 28.5352H158.403V48.9173H161.496V41.2536H165.729C169.148 41.2536 172.404 38.8078 172.404 34.8944C172.404 30.981 169.148 28.5352 165.729 28.5352ZM165.892 38.3186H161.496V31.3071H165.892C168.171 31.3071 169.474 33.2638 169.474 34.7313C169.311 36.525 168.008 38.3186 165.892 38.3186ZM184.614 35.3836C182.335 35.3836 180.056 36.3619 179.242 38.4817L182.009 39.6231C182.66 38.4817 183.637 38.1555 184.777 38.1555C186.405 38.1555 187.87 39.1339 188.033 40.7645V40.9275C187.544 40.6014 186.242 40.1122 184.94 40.1122C182.009 40.1122 179.079 41.7428 179.079 44.6778C179.079 47.4498 181.521 49.2434 184.126 49.2434C186.242 49.2434 187.219 48.2651 188.033 47.2868H188.196V48.9173H191.126V41.0906C190.8 37.5033 188.033 35.3836 184.614 35.3836ZM184.288 46.6345C183.312 46.6345 181.846 46.1454 181.846 44.8409C181.846 43.2103 183.637 42.7212 185.102 42.7212C186.405 42.7212 187.056 43.0473 187.87 43.3734C187.544 45.3301 185.916 46.6345 184.288 46.6345ZM201.382 35.8727L197.964 44.6778H197.801L194.219 35.8727H190.963L196.336 48.2651L193.242 55.1135H196.336L204.638 35.8727H201.382ZM174.032 48.9173H177.125V28.5352H174.032V48.9173Z" fill="white"/>
<path d="M16.9305 12.2279C16.4421 12.7171 16.2793 13.5324 16.2793 14.5107V50.5464C16.2793 51.5247 16.6049 52.34 17.0933 52.8292L17.2561 52.9922L37.4433 32.7731V32.447L16.9305 12.2279Z" fill="url(#paint0_linear)"/>
<path d="M43.9561 39.6232L37.2812 32.9378V32.4487L43.9561 25.7633L44.1189 25.9264L52.0961 30.492C54.3753 31.7964 54.3753 33.9162 52.0961 35.2206L43.9561 39.6232Z" fill="url(#paint1_linear)"/>
<path d="M44.1173 39.4603L37.2797 32.6119L16.9297 52.9941C17.7437 53.8094 18.8833 53.8094 20.3485 53.1571L44.1173 39.4603Z" fill="url(#paint2_linear)"/>
<path d="M44.1163 25.7635L20.3475 12.2297C18.8823 11.4144 17.7427 11.5775 16.9287 12.3928L37.2787 32.6119L44.1163 25.7635Z" fill="url(#paint3_linear)"/>
<path opacity="0.2" d="M43.9545 39.2971L20.3485 52.6678C19.0461 53.4831 17.9065 53.32 17.0925 52.6678L16.9297 52.8309L17.0925 52.9939C17.9065 53.6462 19.0461 53.8092 20.3485 52.9939L43.9545 39.2971Z" fill="black"/>
<path opacity="0.2" d="M16.93 52.668C16.4416 52.1788 16.2788 51.3635 16.2788 50.3852V50.5482C16.2788 51.5266 16.6044 52.3419 17.0928 52.831V52.668H16.93ZM52.0948 34.7317L43.9548 39.2973L44.1176 39.4603L52.0948 34.8947C53.2344 34.2425 53.7228 33.4272 53.7228 32.6119C53.7228 33.4272 53.0716 34.0795 52.0948 34.7317Z" fill="black"/>
<path opacity="0.2" d="M20.3498 12.3929L52.0958 30.4922C53.0726 31.1445 53.7238 31.7967 53.7238 32.612C53.7238 31.7967 53.2354 30.9814 52.0958 30.3292L20.3498 12.2298C18.0706 10.9254 16.2798 11.9037 16.2798 14.5126V14.6757C16.2798 12.2298 18.0706 11.0884 20.3498 12.3929Z" fill="white"/>
<rect x="62" y="8" width="88" height="16" fill="black"/>
<path d="M69.715 18.71H74.53V10.7H71.215V11.675C71.215 14.835 70.715 17.18 69.715 18.71ZM67.09 18.71H68.155C68.815 17.78 69.255 16.72 69.475 15.53C69.705 14.34 69.82 13.025 69.82 11.585V9.41H76.015V18.71H77.185V22.1H75.85V20H68.47V22.1H67.09V18.71ZM78.2208 16.19C78.2208 15.06 78.6158 14.12 79.4058 13.37C80.1958 12.61 81.1608 12.23 82.3008 12.23C83.4508 12.23 84.4208 12.605 85.2108 13.355C86.0008 14.105 86.3958 15.05 86.3958 16.19C86.3958 17.33 86.0008 18.28 85.2108 19.04C84.4208 19.8 83.4558 20.18 82.3158 20.18C81.1758 20.18 80.2058 19.8 79.4058 19.04C78.6158 18.28 78.2208 17.33 78.2208 16.19ZM79.7058 16.19C79.7058 16.98 79.9558 17.635 80.4558 18.155C80.9658 18.665 81.5858 18.92 82.3158 18.92C83.0358 18.92 83.6508 18.66 84.1608 18.14C84.6708 17.62 84.9258 16.97 84.9258 16.19C84.9258 15.41 84.6708 14.765 84.1608 14.255C83.6508 13.745 83.0358 13.49 82.3158 13.49C81.5858 13.49 80.9658 13.745 80.4558 14.255C79.9558 14.765 79.7058 15.41 79.7058 16.19ZM87.6544 16.205C87.6544 15.075 88.0344 14.13 88.7944 13.37C89.5644 12.61 90.5394 12.23 91.7194 12.23C92.9194 12.23 93.8694 12.6 94.5694 13.34L93.8794 14.36C93.2994 13.78 92.5994 13.49 91.7794 13.49C91.0194 13.49 90.3894 13.75 89.8894 14.27C89.3894 14.78 89.1394 15.42 89.1394 16.19C89.1394 16.97 89.3894 17.62 89.8894 18.14C90.3994 18.66 91.0444 18.92 91.8244 18.92C92.2444 18.92 92.6644 18.83 93.0844 18.65C93.5144 18.46 93.8744 18.21 94.1644 17.9L94.7494 18.965C94.3994 19.335 93.9544 19.63 93.4144 19.85C92.8744 20.07 92.3094 20.18 91.7194 20.18C90.5294 20.18 89.5544 19.805 88.7944 19.055C88.0344 18.305 87.6544 17.355 87.6544 16.205ZM98.1532 20V13.655H95.5132V12.41H102.248V13.655H99.5932V20H98.1532ZM103.302 21.575C103.582 21.795 103.872 21.905 104.172 21.905C104.782 21.905 105.242 21.53 105.552 20.78L105.927 19.91L102.747 12.41H104.382L106.287 17.375L106.572 18.29H106.602C106.682 17.95 106.767 17.65 106.857 17.39L108.702 12.41H110.277L106.707 21.365C106.487 21.945 106.157 22.385 105.717 22.685C105.287 22.995 104.797 23.15 104.247 23.15C103.997 23.15 103.752 23.11 103.512 23.03C103.272 22.95 103.092 22.87 102.972 22.79L102.792 22.685L103.302 21.575ZM111.704 20V12.41H118.334V20H116.879V13.655H113.159V20H111.704ZM120.581 20V12.41H122.036V15.5H125.876V12.41H127.331V20H125.876V16.745H122.036V20H120.581ZM129.08 16.19C129.08 15.06 129.475 14.12 130.265 13.37C131.055 12.61 132.02 12.23 133.16 12.23C134.31 12.23 135.28 12.605 136.07 13.355C136.86 14.105 137.255 15.05 137.255 16.19C137.255 17.33 136.86 18.28 136.07 19.04C135.28 19.8 134.315 20.18 133.175 20.18C132.035 20.18 131.065 19.8 130.265 19.04C129.475 18.28 129.08 17.33 129.08 16.19ZM130.565 16.19C130.565 16.98 130.815 17.635 131.315 18.155C131.825 18.665 132.445 18.92 133.175 18.92C133.895 18.92 134.51 18.66 135.02 18.14C135.53 17.62 135.785 16.97 135.785 16.19C135.785 15.41 135.53 14.765 135.02 14.255C134.51 13.745 133.895 13.49 133.175 13.49C132.445 13.49 131.825 13.745 131.315 14.255C130.815 14.765 130.565 15.41 130.565 16.19ZM142.759 20V12.41H145.894C146.674 12.41 147.289 12.58 147.739 12.92C148.199 13.25 148.429 13.73 148.429 14.36C148.429 14.73 148.334 15.065 148.144 15.365C147.954 15.655 147.689 15.875 147.349 16.025V16.04C147.809 16.15 148.164 16.37 148.414 16.7C148.664 17.03 148.789 17.41 148.789 17.84C148.789 18.53 148.534 19.065 148.024 19.445C147.524 19.815 146.849 20 145.999 20H142.759ZM144.214 15.62H145.639C146.069 15.62 146.394 15.52 146.614 15.32C146.834 15.11 146.944 14.825 146.944 14.465C146.944 13.765 146.494 13.415 145.594 13.415H144.214V15.62ZM144.214 18.98H145.774C146.284 18.98 146.669 18.875 146.929 18.665C147.189 18.455 147.319 18.165 147.319 17.795C147.319 17.415 147.184 17.12 146.914 16.91C146.644 16.7 146.259 16.595 145.759 16.595H144.214V18.98Z" fill="white"/>
<defs>
<linearGradient id="paint0_linear" x1="35.4897" y1="14.2009" x2="8.12384" y2="41.522" gradientUnits="userSpaceOnUse">
<stop stop-color="#00A0FF"/>
<stop offset="0.007" stop-color="#00A1FF"/>
<stop offset="0.26" stop-color="#00BEFF"/>
<stop offset="0.512" stop-color="#00D2FF"/>
<stop offset="0.76" stop-color="#00DFFF"/>
<stop offset="1" stop-color="#00E3FF"/>
</linearGradient>
<linearGradient id="paint1_linear" x1="55.0818" y1="32.6133" x2="15.6891" y2="32.6133" gradientUnits="userSpaceOnUse">
<stop stop-color="#FFE000"/>
<stop offset="0.409" stop-color="#FFBD00"/>
<stop offset="0.775" stop-color="#FFA500"/>
<stop offset="1" stop-color="#FF9C00"/>
</linearGradient>
<linearGradient id="paint2_linear" x1="40.4168" y1="36.3557" x2="3.30833" y2="73.4057" gradientUnits="userSpaceOnUse">
<stop stop-color="#FF3A44"/>
<stop offset="1" stop-color="#C31162"/>
</linearGradient>
<linearGradient id="paint3_linear" x1="11.877" y1="0.287424" x2="28.4485" y2="16.8328" gradientUnits="userSpaceOnUse">
<stop stop-color="#32A071"/>
<stop offset="0.069" stop-color="#2DA771"/>
<stop offset="0.476" stop-color="#15CF74"/>
<stop offset="0.801" stop-color="#06E775"/>
<stop offset="1" stop-color="#00F076"/>
</linearGradient>
</defs>
</svg>
