<svg width="85" height="21" viewBox="0 0 85 21" fill="none" xmlns="http://www.w3.org/2000/svg">
<path d="M13.2897 3.4235V0.61499H0.086861V3.74199H8.3676L0 12.1096V14.9181H13.3476V11.7622H4.89317L13.2897 3.4235Z" fill="#172853"/>
<path d="M26.7332 2.90231C25.4882 1.19405 23.8089 0.325439 21.6953 0.325439C19.8133 0.325439 18.2498 1.02033 17.0337 2.4101C15.7887 3.82883 15.1807 5.595 15.1807 7.76652C15.1807 9.93806 15.7887 11.7043 17.0337 13.094C18.2498 14.4838 19.8133 15.1787 21.6953 15.1787C23.8089 15.1787 25.4882 14.3101 26.7332 12.6018V14.9181H30.5261V0.61497H26.7332V2.90231ZM20.1607 10.7198C19.4369 9.93806 19.0605 8.95362 19.0605 7.76652C19.0605 5.33442 20.6819 3.5972 22.9113 3.5972C25.1408 3.5972 26.7332 5.33442 26.7332 7.76652C26.7332 8.95362 26.3858 9.93806 25.6619 10.7198C24.9381 11.5016 24.0405 11.9069 22.9113 11.9069C21.7821 11.9069 20.8846 11.5016 20.1607 10.7198Z" fill="#172853"/>
<path d="M42.7761 0.325439C40.6625 0.325439 38.9543 1.19405 37.7093 2.90231V0.61497H33.9453V20.7088H37.7093V12.6018C38.9543 14.3101 40.6336 15.1787 42.7761 15.1787C44.6581 15.1787 46.2216 14.4838 47.4377 13.094C48.6537 11.7043 49.2618 9.93806 49.2618 7.76652C49.2618 5.595 48.6537 3.82883 47.4377 2.4101C46.1927 1.02033 44.6581 0.325439 42.7761 0.325439ZM41.589 11.9069C39.3596 11.9069 37.7093 10.1697 37.7093 7.76652C37.7093 5.33442 39.3017 3.5972 41.589 3.5972C43.7895 3.5972 45.4109 5.33442 45.4109 7.76652C45.4109 10.1697 43.7895 11.9069 41.589 11.9069Z" fill="#172853"/>
<path d="M51.957 14.9181H55.7499V0.61499H51.957V14.9181Z" fill="#172853"/>
<path d="M60.5554 1.54149C59.4841 2.35219 58.934 3.39452 58.934 4.69744C58.934 6.75315 60.4685 8.11397 63.5087 8.83781C63.5955 8.86676 63.7403 8.89571 63.943 8.92467C66.2593 9.41688 67.3016 9.79326 67.3016 10.8356C67.3016 11.7911 66.3172 12.486 64.9274 12.486C63.4218 12.486 62.3795 11.7043 62.2926 10.5461H58.6445C58.6445 11.9069 59.2235 13.0072 60.4106 13.8758C61.5977 14.7444 63.1033 15.1787 64.9564 15.1787C66.7804 15.1787 68.2571 14.7733 69.4152 13.9337C70.5444 13.094 71.1235 12.0227 71.1235 10.7198C71.1235 9.59056 70.6313 8.63513 69.9653 8.05606C68.8072 7.1585 67.3885 6.69524 66.0856 6.46361C63.6824 5.9714 62.6401 5.56605 62.6401 4.52372C62.6401 3.5972 63.5376 2.96022 64.8116 2.96022C66.2014 2.96022 67.1568 3.74197 67.2437 4.87116H70.6892C70.6892 3.53929 70.1391 2.43905 69.0388 1.5994C67.9386 0.75974 66.5199 0.325439 64.7826 0.325439C63.0454 0.325439 61.6267 0.73079 60.5554 1.54149Z" fill="#172853"/>
<path d="M77.4315 1.86345L75.9501 3.82007V0H74.4688V6.49412H75.9501V4.3232L77.4315 6.49412H79.174L77.4222 4.06232L79.174 1.86345H77.4315Z" fill="#172853"/>
<path d="M84.0025 2.96296V1.86353H79.698V3.0934H82.0645L79.6514 5.39476V6.4942H84.0305V5.255H81.5894L84.0025 2.96296Z" fill="#172853"/>
</svg>
