<svg width="21" height="21" viewBox="0 0 21 21" fill="none" xmlns="http://www.w3.org/2000/svg">
<circle cx="10.5" cy="10.5" r="10.5" fill="#172853"/>
<path d="M10.5 10C11.9203 10 13.0714 8.88086 13.0714 7.5C13.0714 6.11914 11.9203 5 10.5 5C9.07969 5 7.92857 6.11914 7.92857 7.5C7.92857 8.88086 9.07969 10 10.5 10ZM12.3 10.625H11.9645C11.5185 10.8242 11.0223 10.9375 10.5 10.9375C9.97768 10.9375 9.48348 10.8242 9.03549 10.625H8.7C7.20937 10.625 6 11.8008 6 13.25V14.0625C6 14.5801 6.43192 15 6.96429 15H14.0357C14.5681 15 15 14.5801 15 14.0625V13.25C15 11.8008 13.7906 10.625 12.3 10.625Z" fill="white"/>
</svg>
