<svg width="32" height="32" viewBox="0 0 32 32" fill="none" xmlns="http://www.w3.org/2000/svg">
<circle cx="16" cy="16" r="15.5" fill="white" stroke="#172853"/>
<path d="M23.6354 11.6781C23.7453 11.2875 23.6354 11 23.1066 11H21.3572C20.9116 11 20.7067 11.2469 20.5968 11.5219C20.5968 11.5219 19.7057 13.8062 18.4463 15.2875C18.0394 15.7156 17.8523 15.8531 17.6295 15.8531C17.5196 15.8531 17.3503 15.7156 17.3503 15.325V11.6781C17.3503 11.2094 17.2256 11 16.8573 11H14.1068C13.8276 11 13.6613 11.2188 13.6613 11.4219C13.6613 11.8656 14.291 11.9688 14.3563 13.2188V15.9313C14.3563 16.525 14.2553 16.6344 14.0326 16.6344C13.4385 16.6344 11.995 14.3406 11.1395 11.7156C10.9673 11.2063 10.798 11 10.3495 11H8.59999C8.10099 11 8 11.2469 8 11.5219C8 12.0094 8.59405 14.4313 10.7653 17.6313C12.2118 19.8156 14.2494 21 16.1028 21C17.2167 21 17.3533 20.7375 17.3533 20.2844C17.3533 18.1969 17.2523 18 17.8107 18C18.0691 18 18.5147 18.1375 19.5542 19.1906C20.7423 20.4406 20.9384 21 21.6037 21H23.3532C23.8522 21 24.1047 20.7375 23.9591 20.2188C23.6264 19.1281 21.378 16.8844 21.277 16.7344C21.0186 16.3844 21.0928 16.2281 21.277 15.9156C21.2799 15.9125 23.4156 12.75 23.6354 11.6781Z" fill="#172853"/>
</svg>
